<svg width="48" height="48" viewBox="0 0 48 48" fill="none" xmlns="http://www.w3.org/2000/svg">
<path d="M36.728 9.272C40.0326 12.5763 41.9227 17.0362 41.9984 21.7088C42.0742 26.3814 40.3298 30.9003 37.134 34.31L36.728 34.73L28.242 43.214C27.1652 44.2901 25.7197 44.9166 24.1983 44.9668C22.6769 45.0169 21.1932 44.4869 20.048 43.484L19.76 43.214L11.272 34.728C7.89631 31.3523 5.99988 26.7739 5.99988 22C5.99988 17.2261 7.89631 12.6477 11.272 9.272C14.6477 5.89633 19.2261 3.99989 24 3.99989C28.7739 3.99989 33.3523 5.89633 36.728 9.272ZM24 16C23.2121 16 22.4318 16.1552 21.7039 16.4567C20.9759 16.7583 20.3145 17.2002 19.7573 17.7574C19.2002 18.3145 18.7582 18.9759 18.4567 19.7039C18.1552 20.4319 18 21.2121 18 22C18 22.7879 18.1552 23.5682 18.4567 24.2961C18.7582 25.0241 19.2002 25.6855 19.7573 26.2426C20.3145 26.7998 20.9759 27.2418 21.7039 27.5433C22.4318 27.8448 23.2121 28 24 28C25.5913 28 27.1174 27.3679 28.2426 26.2426C29.3678 25.1174 30 23.5913 30 22C30 20.4087 29.3678 18.8826 28.2426 17.7574C27.1174 16.6321 25.5913 16 24 16Z" fill="#F24822"/>
</svg>
